<?xml version="1.0" encoding="utf-8"?>
<!-- Generator: Adobe Illustrator 17.1.0, SVG Export Plug-In . SVG Version: 6.00 Build 0)  -->
<!DOCTYPE svg PUBLIC "-//W3C//DTD SVG 1.1//EN" "http://www.w3.org/Graphics/SVG/1.1/DTD/svg11.dtd">
<svg version="1.1" id="Calque_1" xmlns="http://www.w3.org/2000/svg" xmlns:xlink="http://www.w3.org/1999/xlink" x="0px" y="0px"
	 viewBox="0 0 568 70" width="568" height="70" enable-background="new 0 0 568 70" xml:space="preserve" preserveAspectRatio="xMidYMin meet">
<g>
	<path fill="#3F3F3F" d="M30.2,69.4V65c-3.4,3.4-6.6,4.8-12.4,4.8c-5.7,0-9.9-1.5-12.9-4.4c-2.7-2.8-4.2-6.9-4.2-11.3
		c0-8,5.5-14.6,17.2-14.6h11.9V37c0-5.5-2.7-7.9-9.4-7.9c-4.8,0-7.1,1.2-9.7,4.2l-8-7.8c4.9-5.4,9.8-7,18.2-7
		c14.1,0,21.5,6,21.5,17.8v33.2H30.2z M29.9,48.1h-10c-4.5,0-7.1,2.1-7.1,5.7c0,3.5,2.3,5.8,7.3,5.8c3.5,0,5.7-0.3,7.9-2.4
		c1.4-1.3,1.8-3.3,1.8-6.4V48.1z"/>
	<path fill="#E6265D" d="M70.2,69.4c-10.3,0-14.7-7.3-14.7-14.4V0.5h12.6v53.7c0,3,1.3,4.5,4.4,4.5h4.8v10.6H70.2z"/>
	<path fill="#E6265D" d="M87.2,10.4V0.1h12.9v10.3H87.2z M87.4,69.4V19H100v50.4H87.4z"/>
	<path fill="#E6265D" d="M129.8,69.4c-10.3,0-14.6-7.3-14.6-14.4V30h-5.3v-9.6h5.3V5.6h12.6v14.9h8.9V30h-8.9v24.2
		c0,2.9,1.4,4.5,4.4,4.5h4.5v10.6H129.8z"/>
	<path fill="#E6265D" d="M163.8,69.4c-10.3,0-14.6-7.3-14.6-14.4V30h-5.3v-9.6h5.3V5.6h12.6v14.9h8.9V30h-8.9v24.2
		c0,2.9,1.4,4.5,4.4,4.5h4.5v10.6H163.8z"/>
	<path fill="#E6265D" d="M196.3,69.4c-10.3,0-14.7-7.3-14.7-14.4V0.5h12.6v53.7c0,3,1.3,4.5,4.4,4.5h4.8v10.6H196.3z"/>
	<path fill="#E6265D" d="M221,48.1c0,6.5,4,11.2,11,11.2c5.5,0,8.2-1.5,11.4-4.7l7.6,7.4c-5.1,5.1-10.1,7.9-19.1,7.9
		c-11.9,0-23.3-5.4-23.3-25.8c0-16.4,8.9-25.7,22-25.7c14,0,22,10.3,22,24.1v5.6H221z M239,34.1c-1.4-3-4.2-5.2-8.4-5.2
		c-4.3,0-7.1,2.2-8.4,5.2c-0.8,1.8-1.1,3.2-1.2,5.4h19.1C240,37.3,239.7,35.9,239,34.1z"/>
	<path fill="#3F3F3F" d="M314,69.4V29.2l-13.2,26.1h-9.1l-13.2-26.1v40.1h-13.4V0.5h13.2l18,37.2l17.9-37.2h13.2v68.9H314z"/>
	<path fill="#3F3F3F" d="M368.4,69.4V65c-3.4,3.4-6.6,4.8-12.4,4.8c-5.7,0-9.9-1.5-12.9-4.4c-2.7-2.8-4.2-6.9-4.2-11.3
		c0-8,5.5-14.6,17.2-14.6h11.9V37c0-5.5-2.7-7.9-9.4-7.9c-4.8,0-7.1,1.2-9.7,4.2l-8-7.8c4.9-5.4,9.8-7,18.2-7
		c14.1,0,21.5,6,21.5,17.8v33.2H368.4z M368.1,48.1h-10c-4.5,0-7.1,2.1-7.1,5.7c0,3.5,2.3,5.8,7.3,5.8c3.5,0,5.7-0.3,7.9-2.4
		c1.4-1.3,1.8-3.3,1.8-6.4V48.1z"/>
	<path fill="#3F3F3F" d="M421.6,32.7c-1.9-1.9-3.6-3-6.7-3c-3.9,0-8.1,2.9-8.1,9.3v30.4h-12.6V19h12.3v4.8c2.4-2.9,7.3-5.4,12.7-5.4
		c4.9,0,8.4,1.3,11.9,4.7L421.6,32.7z"/>
	<path fill="#3F3F3F" d="M468.5,69.4l-12.4-21l-5.3,6v15h-12.6V0.5h12.6v39.1L467.5,19h15.2l-18,20.3l19.3,30.1H468.5z"/>
	<path fill="#3F3F3F" d="M501.5,48.1c0,6.5,4,11.2,11,11.2c5.5,0,8.2-1.5,11.4-4.7l7.6,7.4c-5.1,5.1-10.1,7.9-19.1,7.9
		c-11.9,0-23.3-5.4-23.3-25.8c0-16.4,8.9-25.7,22-25.7c14,0,22,10.3,22,24.1v5.6H501.5z M519.5,34.1c-1.4-3-4.2-5.2-8.4-5.2
		s-7.1,2.2-8.4,5.2c-0.8,1.8-1.1,3.2-1.2,5.4h19.1C520.5,37.3,520.2,35.9,519.5,34.1z"/>
	<path fill="#3F3F3F" d="M560.4,69.4c-10.3,0-14.6-7.3-14.6-14.4V30h-5.3v-9.6h5.3V5.6h12.6v14.9h8.9V30h-8.9v24.2
		c0,2.9,1.4,4.5,4.4,4.5h4.5v10.6H560.4z"/>
</g>
</svg>
